<?xml version="1.0" standalone="no"?><!DOCTYPE svg PUBLIC "-//W3C//DTD SVG 1.1//EN" "http://www.w3.org/Graphics/SVG/1.1/DTD/svg11.dtd"><svg t="1684490261843" class="icon" viewBox="0 0 1820 1024" version="1.1" xmlns="http://www.w3.org/2000/svg" p-id="2773" xmlns:xlink="http://www.w3.org/1999/xlink" width="355.46875" height="200"><path d="M638.862222 317.724444S689.398519 162.891852 862.814815 133.594074c0 0-26.548148 38.115556-51.863704 98.891852 0 0-53.191111-5.783704-65.611852 48.355555 0 0-56.794074 10.24-106.477037 36.882963m0 0M746.571852 311.940741s-73.197037 15.454815-120.130371 50.062222c0 0-24.462222 102.968889 34.607408 199.205926 0 0 60.776296 13.274074 121.931852 7.111111 0 0-0.379259-38.21037 24.462222-57.268148 0 0-30.151111-77.558519-22.660741-160.047408 0-0.094815-31.099259-7.585185-38.21037-39.063703m0 0M685.416296 597.143704s77.653333 119.751111 257.706667 103.348148c0 0-64-60.776296-77.179259-80.213333 0 0-50.157037 12.420741-67.413334-23.04 0-0.094815-64.758519 9.671111-113.114074-0.094815m0 0M891.259259 601.6s12.420741-5.30963 16.971852-35.555556c0 0 100.02963-35.081481 161.754074-129.042963 0 0 19.531852 1.327407 33.28-9.291851 0 0 46.648889 43.425185 68.740741 100.219259 0 0-43.52 124.207407-184.50963 164.124444 0 0-63.431111-41.244444-96.237037-90.453333m0 0M1147.164444 260.456296s72.722963 83.342222 39.917037 224.900741c0 0-40.391111-65.042963-60.397037-80.118518 0 0 18.014815-34.891852-2.654814-60.586667-0.094815-0.094815 19.152593-37.641481 23.134814-84.195556m0 0M840.628148 241.967407s21.333333 17.161481 22.186667 32.900741c0 0 90.168889 5.594074 168.296296 54.613333 0 0 34.891852-28.634074 68.645926-7.395555 0 0 18.583704-34.322963 22.471111-97.28 0 0-69.783704-91.685926-215.229629-94.90963-0.094815 0-56.888889 77.179259-66.370371 112.071111m0 0M815.881481 352.900741s42.002963 2.654815 49.114075-47.028148c0 0 83.057778 7.68 149.333333 47.028148 0 0-15.928889 50.251852 25.125926 74.808889 0 0-41.434074 62.293333-135.68 107.045926 0 0-18.583704-43.140741-67.413334-35.176297-0.094815-0.094815-19.911111-38.115556-20.48-146.678518m0 0" fill="#FFA28D" p-id="2774"></path><path d="M1253.072593 787.437037h-287.668149c-5.688889-9.386667-13.558519-17.351111-22.85037-23.134815v-42.287407h-74.619259V764.207407c-9.291852 5.878519-17.161481 13.748148-22.850371 23.134815H566.518519c-21.712593 0-39.348148 17.635556-39.348149 39.348148s17.635556 39.348148 39.348149 39.348149h282.548148c12.8 17.066667 33.185185 28.065185 56.225185 28.065185s43.33037-10.998519 56.225185-28.065185h291.65037c21.712593 0 39.348148-17.635556 39.348149-39.348149-0.094815-21.617778-17.73037-39.253333-39.442963-39.253333z" fill="#5FFFBA" p-id="2775"></path></svg>